<svg width="36" height="36" viewBox="0 0 36 36" fill="none" xmlns="http://www.w3.org/2000/svg">
<g clip-path="url(#clip0_639_20936)">
<circle cx="18" cy="18" r="17.5" fill="#151515" stroke="white"/>
<path d="M24.2972 12.119L24.2979 12.1197C25.1134 12.9362 25.3866 13.9336 25.4443 15.1586L25.9438 15.135L25.4446 15.1632C25.5185 16.4719 25.5185 20.428 25.4446 21.7367L25.4444 21.7399C25.3832 22.966 25.1098 23.9642 24.2972 24.7809L24.2965 24.7816C23.4846 25.6008 22.4935 25.8749 21.2762 25.9328L21.2762 25.9328L21.2715 25.9331C19.9697 26.0073 16.0303 26.0073 14.7285 25.9331L14.7252 25.9329C13.5074 25.8715 12.5184 25.5975 11.7021 24.7802C10.8866 23.9637 10.6134 22.9663 10.5557 21.7413L10.5557 21.7413L10.5554 21.7367C10.4815 20.428 10.4815 16.4683 10.5554 15.1597L10.5554 15.1597L10.5556 15.1564C10.6168 13.9292 10.8871 12.9321 11.7021 12.1161C12.5182 11.299 13.5105 11.025 14.7239 10.9671L14.7239 10.9671L14.7285 10.9668C16.0303 10.8926 19.9697 10.8926 21.2715 10.9668L21.2715 10.9668L21.2748 10.967C22.4933 11.0284 23.485 11.3027 24.2972 12.119ZM22.9022 25.1819L22.9039 25.1812C23.7338 24.8467 24.3735 24.2041 24.7025 23.3732C24.9481 22.7529 25.0268 21.7751 25.0546 20.8781C25.075 20.2183 25.0682 19.5431 25.0628 19.0056C25.0607 18.7965 25.0588 18.6083 25.0588 18.45C25.0588 18.2915 25.0607 18.1034 25.0628 17.8944C25.0682 17.3572 25.075 16.6825 25.0546 16.0232C25.0268 15.1263 24.948 14.149 24.7027 13.5273L24.702 13.5255C24.3698 12.6929 23.7309 12.0495 22.9027 11.7182L22.9013 11.7177C22.2838 11.4728 21.3106 11.3936 20.4181 11.3652C19.7566 11.3442 19.08 11.3507 18.5432 11.3559C18.3399 11.3578 18.1566 11.3596 18.0018 11.3596C17.8443 11.3596 17.6572 11.3577 17.4493 11.3556C16.9147 11.3502 16.2432 11.3433 15.587 11.3639C14.6948 11.3918 13.7212 11.471 13.1014 11.718L13.1014 11.718L13.0996 11.7187C12.2698 12.0532 11.6301 12.6958 11.3011 13.5267L11.3011 13.5267L11.3006 13.5281C11.0574 14.1475 10.9786 15.1245 10.9503 16.0216C10.9294 16.6863 10.9359 17.366 10.941 17.9055C10.943 18.1099 10.9447 18.2942 10.9447 18.45C10.9447 18.6084 10.9428 18.7965 10.9407 19.0055C10.9353 19.5427 10.9285 20.2174 10.949 20.8767C10.9768 21.7736 11.0556 22.7509 11.3009 23.3726L11.3016 23.3744C11.6338 24.207 12.2727 24.8504 13.1009 25.1817L13.1022 25.1822C13.7197 25.4271 14.6929 25.5063 15.5854 25.5347C16.247 25.5557 16.9235 25.5492 17.4603 25.544C17.6637 25.5421 17.847 25.5403 18.0018 25.5403C18.1593 25.5403 18.3464 25.5422 18.5543 25.5443C19.0888 25.5497 19.7603 25.5566 20.4166 25.536C21.3088 25.5081 22.2824 25.4289 22.9022 25.1819ZM14.4005 18.45C14.4005 16.442 16.0101 14.8278 18.0018 14.8278C19.9934 14.8278 21.6031 16.442 21.6031 18.45C21.6031 20.4579 19.9934 22.0721 18.0018 22.0721C16.0101 22.0721 14.4005 20.4579 14.4005 18.45ZM14.8354 18.45C14.8354 20.2022 16.2567 21.6299 18.0018 21.6299C19.7469 21.6299 21.1682 20.2022 21.1682 18.45C21.1682 16.6981 19.7509 15.27 18.0018 15.27C16.2527 15.27 14.8354 16.6981 14.8354 18.45ZM22.7274 14.1592C22.7274 14.4188 22.5218 14.6207 22.2708 14.6207C22.0187 14.6207 21.8142 14.4177 21.8142 14.1592C21.8142 13.902 22.0211 13.6978 22.2708 13.6978C22.5206 13.6978 22.7274 13.902 22.7274 14.1592ZM24.6516 25.1336C25.5868 24.1936 25.8795 23.0528 25.9438 21.7649L21.2999 26.4323C22.5814 26.3713 23.7165 26.0771 24.6516 25.1336Z" fill="#0F264C" stroke="white"/>
</g>
<defs>
<clipPath id="clip0_639_20936">
<rect width="36" height="36" fill="white"/>
</clipPath>
</defs>
</svg>
