<svg width="36" height="36" viewBox="0 0 36 36" fill="none" xmlns="http://www.w3.org/2000/svg">
<g clip-path="url(#clip0_639_20948)">
<circle cx="18" cy="18" r="17.5" fill="#151515" stroke="white"/>
<path d="M10 14H14V25H10V14Z" fill="white"/>
<path d="M15.027 17.7362C15.027 16.6271 15.0272 15.2848 15 14.3123H18.2708C18.3467 14.8234 18.3903 15.3385 18.4013 15.8545C18.8909 14.9512 19.9461 14 22.4216 14C25.1211 14 26 15.8447 26 19.1603V25H22.6233V19.5259C22.6233 17.9198 21.9422 16.7851 20.8466 16.7851C18.9462 16.7851 18.3983 17.9332 18.3983 20.3164V24.9993H15.0216L15.027 17.7362Z" fill="white"/>
<path d="M12.7652 12.8473C13.7854 12.4247 14.2698 11.255 13.8473 10.2348C13.4247 9.21461 12.2551 8.73013 11.2349 9.15272C10.2146 9.57532 9.73013 10.745 10.1527 11.7652C10.5753 12.7853 11.7449 13.2699 12.7652 12.8473Z" fill="white"/>
</g>
<defs>
<clipPath id="clip0_639_20948">
<rect width="36" height="36" fill="white"/>
</clipPath>
</defs>
</svg>
